<svg width="46" height="41" viewBox="0 0 46 41" fill="none" xmlns="http://www.w3.org/2000/svg">
<path d="M1.64286 7.53061H44.3571C45.2645 7.53061 46 6.78142 46 5.85714V1.67347C46 0.749191 45.2645 0 44.3571 0H1.64286C0.735487 0 0 0.749191 0 1.67347V5.85714C0 6.78142 0.735487 7.53061 1.64286 7.53061ZM1.64286 24.2653H44.3571C45.2645 24.2653 46 23.5161 46 22.5918V18.4082C46 17.4839 45.2645 16.7347 44.3571 16.7347H1.64286C0.735487 16.7347 0 17.4839 0 18.4082V22.5918C0 23.5161 0.735487 24.2653 1.64286 24.2653ZM1.64286 41H44.3571C45.2645 41 46 40.2508 46 39.3265V35.1429C46 34.2186 45.2645 33.4694 44.3571 33.4694H1.64286C0.735487 33.4694 0 34.2186 0 35.1429V39.3265C0 40.2508 0.735487 41 1.64286 41Z" fill="white"/>
</svg>
